<?xml version="1.0" encoding="UTF-8"?>
<!DOCTYPE svg PUBLIC "-//W3C//DTD SVG 1.1//EN" "http://www.w3.org/Graphics/SVG/1.1/DTD/svg11.dtd">
<!-- Creator: CorelDRAW -->
<svg xmlns="http://www.w3.org/2000/svg" xml:space="preserve" width="6.82666in" height="6.82666in" style="shape-rendering:geometricPrecision; text-rendering:geometricPrecision; image-rendering:optimizeQuality; fill-rule:evenodd; clip-rule:evenodd"
viewBox="0 0 6.82666 6.82666"
 xmlns:xlink="http://www.w3.org/1999/xlink">
 <defs>
  <style type="text/css">
   <![CDATA[
    .fil1 {fill:none}
    .fil0 {fill:#212121;fill-rule:nonzero}
   ]]>
  </style>
 </defs>
 <g id="Layer_x0020_1">
  <metadata id="CorelCorpID_0Corel-Layer"/>
  <polygon class="fil0" points="2.75286,5.11998 4.0738,5.11998 4.0738,5.33332 2.75286,5.33332 "/>
  <polygon class="fil0" points="2.75286,5.41704 4.0738,5.41704 4.0738,5.63037 2.75286,5.63037 "/>
  <polygon class="fil0" points="2.95072,5.71408 3.87594,5.71408 3.87594,5.92742 2.95072,5.92742 "/>
  <path class="fil0" d="M3.98039 1.76628l-1.13417 0 -0.295189 0.413402 0.86237 0.839425 0.862232 -0.83922 -0.29524 -0.413606zm-1.16144 -0.106669l1.18871 0 0.0272717 0 0.016063 0.0225 0.337787 0.473205 0.0264803 0.0371024 -0.0327323 0.0318583 -0.932051 0.907177 -0.0370866 0.0360945 -0.0370787 -0.0360945 -0.932193 -0.907386 -0.0327362 -0.0318661 0.0264843 -0.0370945 0.337744 -0.472996 0.0160669 -0.0225 0.0272677 0z"/>
  <polygon class="fil0" points="2.48121,2.13261 4.29809,2.13261 4.29809,2.23928 2.48121,2.23928 "/>
  <polygon class="fil0" points="3.32367,1.76248 2.97737,2.21802 2.89279,2.15386 3.23908,1.69831 "/>
  <polygon class="fil0" points="3.54022,1.69831 3.88651,2.15386 3.80193,2.21802 3.45563,1.76248 "/>
  <polygon class="fil0" points="3.89235,2.20865 3.46153,3.11604 3.36528,3.07062 3.79609,2.16323 "/>
  <polygon class="fil0" points="3.03071,2.16323 3.46153,3.07062 3.36528,3.11604 2.93446,2.20865 "/>
  <path class="fil0" d="M3.41333 0.746661c0.43261,0 0.82428,0.175362 1.1078,0.458878 0.283516,0.283516 0.458878,0.675185 0.458878,1.1078 0,0.482787 -0.174453,0.685386 -0.375213,0.918543 -0.240988,0.279874 -0.524787,0.609465 -0.524787,1.67478l0 0.106669 -0.106669 0 -1.12 0 -0.106669 0 0 -0.106669c0,-1.06531 -0.283799,-1.39491 -0.524787,-1.67478 -0.20076,-0.23315 -0.375217,-0.43576 -0.375217,-0.918551 0,-0.43261 0.175362,-0.82428 0.458878,-1.1078 0.283516,-0.283516 0.675185,-0.458878 1.1078,-0.458878zm0.956961 0.609713c-0.244898,-0.244898 -0.583236,-0.396374 -0.956961,-0.396374 -0.373724,0 -0.712063,0.151476 -0.956961,0.396374 -0.244898,0.244898 -0.396374,0.583236 -0.396374,0.956961 0,0.404606 0.150043,0.578858 0.322713,0.779386 0.256677,0.298091 0.557484,0.647465 0.576346,1.70727l0.908555 0c0.0188622,-1.05981 0.319673,-1.40919 0.576346,-1.70728 0.172665,-0.200528 0.322709,-0.37478 0.322709,-0.779378 0,-0.373724 -0.151476,-0.712063 -0.396374,-0.956961z"/>
  <polygon class="fil0" points="3.17273,2.80715 3.17273,4.90666 3.06606,4.90666 3.06606,2.80715 "/>
  <polygon class="fil0" points="3.78668,2.80715 3.78668,4.90666 3.68001,4.90666 3.68001,2.80715 "/>
 </g>
 <rect class="fil1" width="6.82666" height="6.82666"/>
</svg>
